<mxfile host="app.diagrams.net" modified="2024-05-23T13:31:37.037Z" agent="Mozilla/5.0 (Macintosh; Intel Mac OS X 10_15_7) AppleWebKit/537.36 (KHTML, like Gecko) Chrome/124.0.0.0 Safari/537.36" etag="cd-RlNrNWlrqY3cGXQMQ" version="24.4.6" type="github">
  <diagram name="第 1 页" id="wH5PDqUqGCJ1FevBNGRv">
    <mxGraphModel dx="1434" dy="658" grid="0" gridSize="10" guides="1" tooltips="1" connect="1" arrows="1" fold="1" page="1" pageScale="1" pageWidth="827" pageHeight="1169" math="0" shadow="0">
      <root>
        <mxCell id="0" />
        <mxCell id="1" parent="0" />
        <mxCell id="e2egEsfc0hDd3P4DWXBd-1" value="&lt;h2 style=&quot;line-height: 170%;&quot;&gt;&lt;br&gt;&lt;/h2&gt;" style="rounded=0;whiteSpace=wrap;html=1;" vertex="1" parent="1">
          <mxGeometry x="38" y="186" width="671" height="221" as="geometry" />
        </mxCell>
        <mxCell id="e2egEsfc0hDd3P4DWXBd-2" value="&lt;pre&gt;kube-scheduler&lt;/pre&gt;" style="rounded=0;whiteSpace=wrap;html=1;" vertex="1" parent="1">
          <mxGeometry x="59" y="248" width="116" height="60" as="geometry" />
        </mxCell>
        <mxCell id="e2egEsfc0hDd3P4DWXBd-3" value="&lt;h2&gt;Master&lt;/h2&gt;" style="text;strokeColor=none;align=center;fillColor=none;html=1;verticalAlign=middle;whiteSpace=wrap;rounded=0;" vertex="1" parent="1">
          <mxGeometry x="343.5" y="196" width="60" height="30" as="geometry" />
        </mxCell>
        <mxCell id="e2egEsfc0hDd3P4DWXBd-4" value="&lt;pre&gt;kube-controller&lt;/pre&gt;&lt;pre&gt;-manager&lt;/pre&gt;" style="rounded=0;whiteSpace=wrap;html=1;" vertex="1" parent="1">
          <mxGeometry x="206" y="246" width="113" height="60" as="geometry" />
        </mxCell>
        <mxCell id="e2egEsfc0hDd3P4DWXBd-5" value="etcd" style="rounded=0;whiteSpace=wrap;html=1;" vertex="1" parent="1">
          <mxGeometry x="377" y="242" width="112" height="60" as="geometry" />
        </mxCell>
        <mxCell id="e2egEsfc0hDd3P4DWXBd-6" value="cloud-controller-manager" style="rounded=0;whiteSpace=wrap;html=1;" vertex="1" parent="1">
          <mxGeometry x="537" y="242" width="122" height="60" as="geometry" />
        </mxCell>
        <mxCell id="e2egEsfc0hDd3P4DWXBd-10" value="" style="endArrow=none;html=1;rounded=0;entryX=1;entryY=0.75;entryDx=0;entryDy=0;exitX=0;exitY=0.75;exitDx=0;exitDy=0;" edge="1" parent="1" source="e2egEsfc0hDd3P4DWXBd-1" target="e2egEsfc0hDd3P4DWXBd-1">
          <mxGeometry width="50" height="50" relative="1" as="geometry">
            <mxPoint x="37" y="358" as="sourcePoint" />
            <mxPoint x="437" y="452" as="targetPoint" />
          </mxGeometry>
        </mxCell>
        <mxCell id="e2egEsfc0hDd3P4DWXBd-11" value="&lt;pre&gt;kube-apiserver&lt;/pre&gt;" style="text;strokeColor=none;align=center;fillColor=none;html=1;verticalAlign=middle;whiteSpace=wrap;rounded=0;" vertex="1" parent="1">
          <mxGeometry x="287.5" y="366" width="172" height="30" as="geometry" />
        </mxCell>
      </root>
    </mxGraphModel>
  </diagram>
</mxfile>
